<svg width="139" height="17" viewBox="0 0 139 17" fill="none" xmlns="http://www.w3.org/2000/svg">
<path d="M8.36 16.24C6.93333 16.24 5.64 15.9333 4.48 15.32C3.33333 14.6933 2.42667 13.8333 1.76 12.74C1.10667 11.6333 0.78 10.3867 0.78 9C0.78 7.61333 1.10667 6.37333 1.76 5.28C2.42667 4.17333 3.33333 3.31333 4.48 2.7C5.64 2.07333 6.94 1.76 8.38 1.76C9.59333 1.76 10.6867 1.97333 11.66 2.4C12.6467 2.82667 13.4733 3.44 14.14 4.24L12.06 6.16C11.1133 5.06667 9.94 4.52 8.54 4.52C7.67333 4.52 6.9 4.71333 6.22 5.1C5.54 5.47333 5.00667 6 4.62 6.68C4.24667 7.36 4.06 8.13333 4.06 9C4.06 9.86667 4.24667 10.64 4.62 11.32C5.00667 12 5.54 12.5333 6.22 12.92C6.9 13.2933 7.67333 13.48 8.54 13.48C9.94 13.48 11.1133 12.9267 12.06 11.82L14.14 13.74C13.4733 14.5533 12.6467 15.1733 11.66 15.6C10.6733 16.0267 9.57333 16.24 8.36 16.24ZM22.648 5.08C23.9813 5.08 25.0546 5.48 25.868 6.28C26.6946 7.08 27.108 8.26667 27.108 9.84V16H23.988V10.32C23.988 9.46667 23.8013 8.83333 23.428 8.42C23.0546 7.99333 22.5146 7.78 21.808 7.78C21.0213 7.78 20.3946 8.02667 19.928 8.52C19.4613 9 19.228 9.72 19.228 10.68V16H16.108V1.16H19.228V6.36C19.6413 5.94667 20.1413 5.63333 20.728 5.42C21.3146 5.19333 21.9546 5.08 22.648 5.08ZM29.9361 5.24H33.0561V16H29.9361V5.24ZM31.4961 3.74C30.9228 3.74 30.4561 3.57333 30.0961 3.24C29.7361 2.90667 29.5561 2.49333 29.5561 2C29.5561 1.50667 29.7361 1.09333 30.0961 0.76C30.4561 0.426666 30.9228 0.259999 31.4961 0.259999C32.0694 0.259999 32.5361 0.419999 32.8961 0.74C33.2561 1.06 33.4361 1.46 33.4361 1.94C33.4361 2.46 33.2561 2.89333 32.8961 3.24C32.5361 3.57333 32.0694 3.74 31.4961 3.74ZM39.5717 16.16C38.6784 16.16 37.8051 16.0533 36.9517 15.84C36.0984 15.6133 35.4184 15.3333 34.9117 15L35.9517 12.76C36.4317 13.0667 37.0117 13.32 37.6917 13.52C38.3717 13.7067 39.0384 13.8 39.6917 13.8C41.0117 13.8 41.6717 13.4733 41.6717 12.82C41.6717 12.5133 41.4917 12.2933 41.1317 12.16C40.7717 12.0267 40.2184 11.9133 39.4717 11.82C38.5917 11.6867 37.8651 11.5333 37.2917 11.36C36.7184 11.1867 36.2184 10.88 35.7917 10.44C35.3784 10 35.1717 9.37333 35.1717 8.56C35.1717 7.88 35.3651 7.28 35.7517 6.76C36.1517 6.22667 36.7251 5.81333 37.4717 5.52C38.2317 5.22667 39.1251 5.08 40.1517 5.08C40.9117 5.08 41.6651 5.16667 42.4117 5.34C43.1717 5.5 43.7984 5.72667 44.2917 6.02L43.2517 8.24C42.3051 7.70667 41.2717 7.44 40.1517 7.44C39.4851 7.44 38.9851 7.53333 38.6517 7.72C38.3184 7.90667 38.1517 8.14667 38.1517 8.44C38.1517 8.77333 38.3317 9.00667 38.6917 9.14C39.0517 9.27333 39.6251 9.4 40.4117 9.52C41.2917 9.66667 42.0117 9.82667 42.5717 10C43.1317 10.16 43.6184 10.46 44.0317 10.9C44.4451 11.34 44.6517 11.9533 44.6517 12.74C44.6517 13.4067 44.4517 14 44.0517 14.52C43.6517 15.04 43.0651 15.4467 42.2917 15.74C41.5317 16.02 40.6251 16.16 39.5717 16.16ZM53.5167 15.48C53.2101 15.7067 52.8301 15.88 52.3767 16C51.9367 16.1067 51.4701 16.16 50.9767 16.16C49.6967 16.16 48.7034 15.8333 47.9967 15.18C47.3034 14.5267 46.9567 13.5667 46.9567 12.3V7.88H45.2967V5.48H46.9567V2.86H50.0767V5.48H52.7567V7.88H50.0767V12.26C50.0767 12.7133 50.1901 13.0667 50.4167 13.32C50.6567 13.56 50.9901 13.68 51.4167 13.68C51.9101 13.68 52.3301 13.5467 52.6767 13.28L53.5167 15.48ZM60.0561 16.16C58.9228 16.16 57.9028 15.9267 56.9961 15.46C56.1028 14.98 55.4028 14.32 54.8961 13.48C54.3894 12.64 54.1361 11.6867 54.1361 10.62C54.1361 9.55333 54.3894 8.6 54.8961 7.76C55.4028 6.92 56.1028 6.26667 56.9961 5.8C57.9028 5.32 58.9228 5.08 60.0561 5.08C61.1894 5.08 62.2028 5.32 63.0961 5.8C63.9894 6.26667 64.6894 6.92 65.1961 7.76C65.7028 8.6 65.9561 9.55333 65.9561 10.62C65.9561 11.6867 65.7028 12.64 65.1961 13.48C64.6894 14.32 63.9894 14.98 63.0961 15.46C62.2028 15.9267 61.1894 16.16 60.0561 16.16ZM60.0561 13.6C60.8561 13.6 61.5094 13.3333 62.0161 12.8C62.5361 12.2533 62.7961 11.5267 62.7961 10.62C62.7961 9.71333 62.5361 8.99333 62.0161 8.46C61.5094 7.91333 60.8561 7.64 60.0561 7.64C59.2561 7.64 58.5961 7.91333 58.0761 8.46C57.5561 8.99333 57.2961 9.71333 57.2961 10.62C57.2961 11.5267 57.5561 12.2533 58.0761 12.8C58.5961 13.3333 59.2561 13.6 60.0561 13.6ZM84.2056 8.72C85.0056 8.97333 85.6323 9.4 86.0856 10C86.539 10.5867 86.7656 11.3133 86.7656 12.18C86.7656 13.4067 86.2856 14.3533 85.3256 15.02C84.379 15.6733 82.9923 16 81.1656 16H73.9256V2H80.7656C82.4723 2 83.779 2.32667 84.6856 2.98C85.6056 3.63333 86.0656 4.52 86.0656 5.64C86.0656 6.32 85.899 6.92667 85.5656 7.46C85.2456 7.99333 84.7923 8.41333 84.2056 8.72ZM77.1456 4.44V7.74H80.3656C81.1656 7.74 81.7723 7.6 82.1856 7.32C82.599 7.04 82.8056 6.62667 82.8056 6.08C82.8056 5.53333 82.599 5.12667 82.1856 4.86C81.7723 4.58 81.1656 4.44 80.3656 4.44H77.1456ZM80.9256 13.56C81.779 13.56 82.419 13.42 82.8456 13.14C83.2856 12.86 83.5056 12.4267 83.5056 11.84C83.5056 10.68 82.6456 10.1 80.9256 10.1H77.1456V13.56H80.9256ZM88.9986 5.24H92.1186V16H88.9986V5.24ZM90.5586 3.74C89.9853 3.74 89.5186 3.57333 89.1586 3.24C88.7986 2.90667 88.6186 2.49333 88.6186 2C88.6186 1.50667 88.7986 1.09333 89.1586 0.76C89.5186 0.426666 89.9853 0.259999 90.5586 0.259999C91.1319 0.259999 91.5986 0.419999 91.9586 0.74C92.3186 1.06 92.4986 1.46 92.4986 1.94C92.4986 2.46 92.3186 2.89333 91.9586 3.24C91.5986 3.57333 91.1319 3.74 90.5586 3.74ZM98.6342 16.16C97.7409 16.16 96.8676 16.0533 96.0142 15.84C95.1609 15.6133 94.4809 15.3333 93.9742 15L95.0142 12.76C95.4942 13.0667 96.0742 13.32 96.7542 13.52C97.4342 13.7067 98.1009 13.8 98.7542 13.8C100.074 13.8 100.734 13.4733 100.734 12.82C100.734 12.5133 100.554 12.2933 100.194 12.16C99.8342 12.0267 99.2809 11.9133 98.5342 11.82C97.6542 11.6867 96.9276 11.5333 96.3542 11.36C95.7809 11.1867 95.2809 10.88 94.8542 10.44C94.4409 10 94.2342 9.37333 94.2342 8.56C94.2342 7.88 94.4276 7.28 94.8142 6.76C95.2142 6.22667 95.7876 5.81333 96.5342 5.52C97.2942 5.22667 98.1876 5.08 99.2142 5.08C99.9742 5.08 100.728 5.16667 101.474 5.34C102.234 5.5 102.861 5.72667 103.354 6.02L102.314 8.24C101.368 7.70667 100.334 7.44 99.2142 7.44C98.5476 7.44 98.0476 7.53333 97.7142 7.72C97.3809 7.90667 97.2142 8.14667 97.2142 8.44C97.2142 8.77333 97.3942 9.00667 97.7542 9.14C98.1142 9.27333 98.6876 9.4 99.4742 9.52C100.354 9.66667 101.074 9.82667 101.634 10C102.194 10.16 102.681 10.46 103.094 10.9C103.508 11.34 103.714 11.9533 103.714 12.74C103.714 13.4067 103.514 14 103.114 14.52C102.714 15.04 102.128 15.4467 101.354 15.74C100.594 16.02 99.6876 16.16 98.6342 16.16ZM112.579 15.48C112.273 15.7067 111.893 15.88 111.439 16C110.999 16.1067 110.533 16.16 110.039 16.16C108.759 16.16 107.766 15.8333 107.059 15.18C106.366 14.5267 106.019 13.5667 106.019 12.3V7.88H104.359V5.48H106.019V2.86H109.139V5.48H111.819V7.88H109.139V12.26C109.139 12.7133 109.253 13.0667 109.479 13.32C109.719 13.56 110.053 13.68 110.479 13.68C110.973 13.68 111.393 13.5467 111.739 13.28L112.579 15.48ZM117.311 6.66C117.684 6.14 118.184 5.74667 118.811 5.48C119.451 5.21333 120.184 5.08 121.011 5.08V7.96C120.664 7.93333 120.431 7.92 120.311 7.92C119.417 7.92 118.717 8.17333 118.211 8.68C117.704 9.17333 117.451 9.92 117.451 10.92V16H114.331V5.24H117.311V6.66ZM127.888 16.16C126.755 16.16 125.735 15.9267 124.828 15.46C123.935 14.98 123.235 14.32 122.728 13.48C122.221 12.64 121.968 11.6867 121.968 10.62C121.968 9.55333 122.221 8.6 122.728 7.76C123.235 6.92 123.935 6.26667 124.828 5.8C125.735 5.32 126.755 5.08 127.888 5.08C129.021 5.08 130.035 5.32 130.928 5.8C131.821 6.26667 132.521 6.92 133.028 7.76C133.535 8.6 133.788 9.55333 133.788 10.62C133.788 11.6867 133.535 12.64 133.028 13.48C132.521 14.32 131.821 14.98 130.928 15.46C130.035 15.9267 129.021 16.16 127.888 16.16ZM127.888 13.6C128.688 13.6 129.341 13.3333 129.848 12.8C130.368 12.2533 130.628 11.5267 130.628 10.62C130.628 9.71333 130.368 8.99333 129.848 8.46C129.341 7.91333 128.688 7.64 127.888 7.64C127.088 7.64 126.428 7.91333 125.908 8.46C125.388 8.99333 125.128 9.71333 125.128 10.62C125.128 11.5267 125.388 12.2533 125.908 12.8C126.428 13.3333 127.088 13.6 127.888 13.6Z" fill="white"/>
<path d="M137.054 16.16C136.507 16.16 136.047 15.9733 135.674 15.6C135.3 15.2267 135.114 14.76 135.114 14.2C135.114 13.6267 135.3 13.1667 135.674 12.82C136.047 12.46 136.507 12.28 137.054 12.28C137.6 12.28 138.06 12.46 138.434 12.82C138.807 13.1667 138.994 13.6267 138.994 14.2C138.994 14.76 138.807 15.2267 138.434 15.6C138.06 15.9733 137.6 16.16 137.054 16.16Z" fill="#0A9695"/>
</svg>
